<?xml version="1.0" standalone="no"?>
<!DOCTYPE svg PUBLIC "-//W3C//DTD SVG 20010904//EN"
 "http://www.w3.org/TR/2001/REC-SVG-20010904/DTD/svg10.dtd">
<svg version="1.0" xmlns="http://www.w3.org/2000/svg"
 width="700.000000pt" height="700.000000pt" viewBox="0 0 700.000000 700.000000"
 preserveAspectRatio="xMidYMid meet">
<metadata>
Created by potrace 1.11, written by Peter Selinger 2001-2013
</metadata>
<g transform="translate(0.000000,700.000000) scale(0.100000,-0.100000)"
fill="#000000" stroke="none">
<path d="M4095 6931 c-473 -195 -827 -398 -1165 -670 -127 -101 -379 -353
-472 -471 -307 -390 -486 -806 -549 -1280 -18 -136 -15 -431 5 -564 10 -59 15
-110 13 -113 -8 -7 -96 113 -153 209 -63 107 -125 261 -154 380 -24 101 -43
275 -39 351 4 52 3 55 -13 40 -26 -24 -166 -227 -236 -342 -269 -446 -438
-975 -460 -1439 -32 -656 128 -1193 521 -1747 195 -274 491 -623 616 -723 267
-215 614 -385 976 -477 136 -34 157 -31 55 8 -311 119 -611 372 -786 663 -70
117 -115 225 -151 360 -26 101 -28 123 -27 294 0 206 17 311 75 477 54 151
161 346 252 457 l24 30 12 -70 c34 -203 135 -389 292 -539 43 -41 83 -75 88
-75 5 0 -8 39 -29 88 -147 340 -192 767 -119 1126 59 292 208 608 395 837 59
73 261 271 292 288 18 10 19 8 10 -37 -17 -80 -13 -288 7 -392 35 -185 124
-415 241 -622 32 -57 149 -239 261 -406 310 -463 396 -617 476 -849 64 -183
82 -287 82 -473 0 -162 -8 -215 -50 -346 -9 -25 104 91 145 151 47 68 113 207
143 300 60 183 80 333 79 583 0 219 -2 218 68 69 168 -359 155 -798 -36 -1178
-100 -199 -301 -435 -480 -562 -195 -138 -420 -226 -654 -256 -59 -8 -52 -9
66 -10 159 -1 339 12 539 40 124 17 170 29 265 66 556 218 992 590 1248 1063
163 302 284 735 338 1211 22 194 30 716 14 891 -38 427 -145 770 -332 1072
-53 87 -170 248 -175 242 -2 -1 4 -50 13 -107 38 -247 -17 -584 -147 -896 -44
-105 -133 -286 -232 -473 -70 -132 -64 -135 -87 50 -25 214 -111 473 -246 743
-84 168 -160 303 -344 612 -347 583 -455 801 -539 1095 -57 199 -66 265 -66
505 0 195 3 232 23 325 42 188 113 345 218 480 30 39 48 70 41 69 -6 0 -75
-26 -152 -58z"/>
</g>
</svg>
